<?xml version="1.0" encoding="utf-8"?>
<!-- Generator: Adobe Illustrator 26.5.3, SVG Export Plug-In . SVG Version: 6.00 Build 0)  -->
<svg version="1.1" id="logo" xmlns="http://www.w3.org/2000/svg" xmlns:xlink="http://www.w3.org/1999/xlink" x="0px" y="0px"
	 viewBox="0 0 402.3 33.3" style="enable-background:new 0 0 402.3 33.3;" xml:space="preserve">
<style type="text/css">
	.st0{fill:#231815;}
</style>
<g id="グループ_81396" transform="translate(244.981 6.866)">
	<path id="パス_173270" class="st0" d="M110.7,6.1h-6.8v11.3h17.2V6.1h-7.5V4.6h10.5V2.3h-10.6V0h-2.8v2.3h-10.3v2.2h10.3V6.1z
		 M118.4,15.8h-12v-1.6h12V15.8z M118.4,12.5h-12V11h12V12.5z M118.4,9.3h-12V7.7h12V9.3z"/>
	<path id="パス_173271" class="st0" d="M104.1,23.1c-1.2,0.5-2.5,0.9-3.7,1.2l0,0l0.3,0.5l0.9,1.3l0.2,0.2
		c1.5-0.4,2.9-0.9,4.3-1.5c1.4-0.6,2.7-1.2,4-1.9l-2.3-1.5C106.9,21.9,105.6,22.4,104.1,23.1"/>
	<rect id="長方形_142381" x="99.6" y="18.8" class="st0" width="25.2" height="2.2"/>
	<path id="パス_173272" class="st0" d="M114.6,22.9c2.8,0.9,5.5,2.1,8.2,3.3l0,0l0.1-0.2l1.2-1.4l0.4-0.5c-2-0.9-4.7-1.9-8.2-3
		L114.6,22.9z"/>
	<path id="パス_173273" class="st0" d="M87.2,17.5c0.1-0.5,0.2-1.8,0.4-4c0-0.2,0.1-0.6,0.1-1.2H75.2c0.4-1.9,0.6-3,0.6-3h11.8
		V7.1H76.3c0-0.4,0.1-0.9,0.2-1.3c0.1-0.5,0.2-1,0.2-1.5c0-0.1,0.1-0.2,0.1-0.3h12.5v4h2.8V1.5H67.9v6.4h2.6V4h3.6V4
		c-0.5,3.6-1.3,7.1-2.3,10.6h12.9c0,0.3-0.1,0.6-0.1,1c0,0.3-0.1,0.6-0.1,1s-0.1,0.6-0.1,0.9H67.3V20h16.9c-0.3,1.9-0.8,3.1-1.3,3.5
		c-0.4,0.3-0.9,0.4-1.4,0.3c-1.6,0-2.9-0.1-4.1-0.2l0.1,0.3l0.2,1.4l0.2,0.8c1.8,0.1,3.3,0.2,4.6,0.1c1,0,1.9-0.4,2.6-1.1
		c0.8-0.7,1.3-2.5,1.8-5.1h5.8v-2.5L87.2,17.5L87.2,17.5z"/>
	<path id="パス_173274" class="st0" d="M143.1,16.1c-1.5-1.2-2.9-2.4-4.3-3.8c1.1-1.4,2-3,2.8-4.6V5.3h-3.2V0h-2.6v5.3h-4.3v2.4
		h7.5c-1,1.8-2.3,3.5-3.7,5c-1.4,1.4-3,2.7-4.7,3.8l1.3,2.5c1.4-0.9,2.8-2,4-3.2v10.5h2.6V14.9c1,1.2,2.1,2.2,3.3,3.2L143.1,16.1z"
		/>
	<path id="パス_173275" class="st0" d="M151,22.8V11.3h5.8V8.7H151V0.2h-2.7v8.5h-5.7v2.6h5.7v11.5h-6.9v2.6h16v-2.6H151z"/>
	<path id="パス_173276" class="st0" d="M43.7,13h13.4v1.8h2.4v-3.4h-18v3.4h2.3L43.7,13z"/>
	<path id="パス_173277" class="st0" d="M39.5,5.4l1.9-1.8c-1.2-1.4-2.7-2.6-4.3-3.4L35.3,2l0,0C36.9,3,38.3,4.1,39.5,5.4"/>
	<path id="パス_173278" class="st0" d="M57.4,1.9h-6.3l0.7-1.6l-2.5-0.2l-0.8,1.9h-5v8.5h14L57.4,1.9L57.4,1.9z M54.8,9.1h-8.9
		V7.8h8.9V9.1z M54.8,6.6h-8.9V5.4h8.9V6.6z M54.8,4.3h-8.9V3.1h8.9V4.3z"/>
	<path id="パス_173279" class="st0" d="M46.8,23.3c-3.3-0.1-5.7-1.1-6.9-3v-7.2H34v2.5h3.3v5c-1.2,1-2.4,2-3.7,2.9l1.3,2.6
		c1.3-1.2,2.6-2.3,3.8-3.6c1.7,2,4.3,3.1,8,3.3c4.4,0.1,8.6,0.1,12.6-0.1l0.9-2.6c-1.8,0.2-4,0.2-6.8,0.2
		C50.6,23.4,48.5,23.4,46.8,23.3"/>
	<path id="パス_173280" class="st0" d="M40.5,9.3C39.2,8,37.7,6.9,36,6.1l-1.7,1.8c1.6,0.9,3.1,2,4.4,3.3L40.5,9.3z"/>
	<path id="パス_173281" class="st0" d="M56.5,22v-4.4c0.9,0.5,1.8,1,2.7,1.3l1.4-2c-2.3-0.6-4.4-1.7-6.1-3.3
		c-0.1-0.1-0.2-0.2-0.3-0.3l-2,1.4c0.2,0.1,0.2,0.2,0.4,0.2c0.7,0.6,1.5,1.1,2.3,1.6h-8.2c0.8-0.5,1.5-1,2.1-1.6
		c0.2-0.1,0.2-0.2,0.3-0.3l-1.9-1.3c-0.1,0.1-0.2,0.2-0.3,0.3c-1.8,1.7-4,2.8-6.4,3.3l1.4,2c0.9-0.3,1.8-0.7,2.7-1.2v4.2L56.5,22
		L56.5,22z M53.9,20.3h-6.8v-1.9h6.8V20.3z"/>
	<path id="パス_173282" class="st0" d="M6.4,10.6c-1.5-1.1-3.1-2-4.8-2.8L0,9.8c1.7,0.8,3.4,1.8,4.9,3L6.4,10.6z"/>
	<path id="パス_173283" class="st0" d="M4.5,15.2c-1.2,3.2-2.7,6.2-4.3,9.2l2.4,1.6c1.6-3.2,3-6.3,4.1-9.2L4.5,15.2z"/>
	<path id="パス_173284" class="st0" d="M10.8,9.8h3v4.3h9.3V9.8h3.1V7.7h-3.1V5.6h-2.4v2.1h-4.6V5.6h-2.3v2.1h-3V4.7h15.6V2.5
		h-7.8V0h-2.7v2.5H8.2v7.8c0,2.7-0.2,5.4-0.6,8c-0.3,2.3-1.1,4.5-2.4,6.5l2.3,1.3c2.3-3.4,3.3-8.7,3.3-15.8L10.8,9.8L10.8,9.8z
		 M16.1,9.8h4.6V12h-4.6V9.8z"/>
	<path id="パス_173285" class="st0" d="M7.4,3.1C5.9,2,4.3,1,2.6,0.2l-1.6,2c1.7,0.8,3.3,1.9,4.7,3L7.4,3.1z"/>
	<path id="パス_173286" class="st0" d="M20.8,22.1c1.6-1.2,2.9-2.7,3.9-4.5v-2.2H12v2.1h9.9c-0.9,1.3-2,2.3-3.3,3.2
		c-1.1-0.8-2-1.7-2.7-2.8l-2.3,0.7c0.8,1.3,1.7,2.4,2.8,3.4c-1.9,0.9-4,1.6-6.1,1.9l1.3,2.2c2.4-0.5,4.7-1.3,6.9-2.5
		c2.1,1.2,4.4,2.1,6.8,2.6l1.6-2.3C24.8,23.7,22.7,23.1,20.8,22.1"/>
</g>
<g id="グループ_81397">
	<path id="パス_173287" class="st0" d="M133.3,21.7c0.1-0.6,0.2-2.2,0.5-5c0.1-0.5,0.1-1,0.1-1.5h-15.7c0.5-2.5,0.8-3.7,0.8-3.7
		h14.9V8.8h-14.3c0.1-0.3,0.2-0.8,0.3-1.7c0.2-0.8,0.2-1.4,0.3-1.8c0-0.2,0.1-0.2,0.1-0.4H136v4.9h3.5V1.9H109v8h3.3v-5h4.5V5
		c-0.7,4.5-1.6,8.9-2.8,13.2h16.3c0,0.4-0.1,0.8-0.1,1.2c-0.1,0.4-0.1,0.8-0.2,1.2c-0.1,0.4-0.1,0.7-0.1,1.1h-21.7v3.1h21.2
		c-0.4,2.4-0.9,3.8-1.6,4.4c-0.5,0.3-1.1,0.5-1.7,0.4c-1.9,0-3.6-0.1-5.1-0.2l0.1,0.4l0.3,1.7l0.2,0.9c1.9,0.1,3.9,0.2,5.8,0.1
		c1.2,0,2.4-0.5,3.3-1.3c0.9-0.9,1.7-3.1,2.2-6.4h7.4v-3.1H133.3L133.3,21.7z"/>
	<path id="パス_173288" class="st0" d="M162.9,7.7h-8.7v14.2h21.7V7.7h-9.5v-2h13.3V2.8h-13.3V0h-3.5v2.8h-13v2.9h13V7.7z
		 M172.6,19.8h-15.1v-2.1h15.1V19.8z M172.6,15.8h-15.1v-2h15.1V15.8z M172.6,11.7h-15.1v-2h15.1V11.7z"/>
	<rect id="長方形_142382" x="149" y="23.4" class="st0" width="31.7" height="2.7"/>
	<path id="パス_173289" class="st0" d="M154.5,28.5c-1.5,0.6-3.1,1.1-4.7,1.5l0,0l0.4,0.5l1.1,1.7l0.2,0.3
		c1.8-0.5,3.7-1.1,5.4-1.9c1.8-0.7,3.5-1.5,5-2.5l-2.9-1.9C157.6,27.3,156.1,28,154.5,28.5"/>
	<path id="パス_173290" class="st0" d="M167.8,28.4c3.5,1.2,6.9,2.6,10.3,4.2l0,0l0.2-0.2l1.6-1.8l0.5-0.6
		c-2.5-1.1-5.9-2.3-10.3-3.8L167.8,28.4z"/>
	<path id="パス_173291" class="st0" d="M219.7,18.5V9.2h2.3V3.8h-7.4V0h-3.3v3.8h-7v5.4h2.1v22.6h14.8V21.5h-11.7v-2.8L219.7,18.5
		L219.7,18.5z M216.6,15.9h-7.1v-4.5h7.1V15.9z M218.1,24.2V29h-8.6v-4.8L218.1,24.2L218.1,24.2z M207.4,6.5h11.6v2.3h-11.6
		L207.4,6.5z"/>
	<path id="パス_173292" class="st0" d="M200.5,1.7c-0.7-0.9-1.2-1.7-1.2-1.7h-3.9c-1.5,3.5-3.9,6.6-6.9,8.9
		c0.9,0.6,1.6,1.3,2.2,2.1c0.2-0.1,0.3-0.2,0.5-0.4c0.2-0.1,0.4-0.3,0.5-0.5v18c-0.4,0.1-0.8,0.2-1.2,0.2c-0.4,0-0.7,0.1-1.1,0.2
		l1,3.1c0.4-0.2,1.9-0.5,4.4-1.2c2.3-0.6,4.2-1.1,5.6-1.5l1.4,2.9l2.9-1.3l-4.1-7.7l-2.3,1.1l-0.2,0.1H198l1.2,2.5
		c-0.7,0.2-1.3,0.3-2,0.5c-1.1,0.2-1.9,0.5-2.5,0.5v-5.9h8.4V9.4h-3.8V6.3h-2.9v3.1h-3.8c2-2,3.7-4.2,5-6.6c0,0,3.1,4.4,4.7,5.5V8.3
		c0,0.1,0.1,0.1,0.1,0.2l2.1-2.3C203.3,5.5,201.6,3.3,200.5,1.7 M194.6,11.9h5.4v2.5h-5.4V11.9z M194.6,16.6h5.4v2.5h-5.4V16.6z"/>
	<path id="パス_173293" class="st0" d="M4.6,3.6c6,0,14.8-0.7,17.3-1.5l0.9,3.1c-0.6,0.2-1.1,0.5-1.6,0.9
		c-3.3,2.5-7.9,5.9-11.6,8.6c6.5-1.3,13-2.1,19.6-2.2V16h-1.6c-1.8,0-3.7,0.1-5.4,0.5c-3.4,1-9.2,5.3-9.2,9c0,1.2,0.6,2.3,1.7,2.8
		c1.6,0.8,5.2,1.2,8.1,1.4l-1,3.4c-4-0.2-7.7-1-10-2.5c-1.5-1.1-2.5-2.8-2.5-4.7c0-4.4,4.4-7.7,7.2-9.5c-5.4,0.7-10.8,1.8-16,3.3
		L0,16.3c1.6-0.3,3.2-0.8,4.6-1.6c4.1-2.7,8-5.6,11.6-8.8C13.7,6.4,8.1,6.7,5.9,6.8c-0.3,0.3-0.6,0.4-1,0.5L4.6,3.6z"/>
	<path id="パス_173294" class="st0" d="M62.4,31c-3.5,0.5-7.1,0.8-10.7,0.8c-2.4,0.1-4.8-0.1-7.2-0.5c-4.4-0.9-6.3-3.8-6.3-7
		c0.2-2.8,1.4-5.5,3.4-7.4l3,1.4c-1.8,1.8-2.9,3.7-2.9,5.5c0,1.9,1.2,3.6,4,4.2c1.8,0.3,3.6,0.4,5.4,0.4c3.7,0,7.3-0.3,11-1L62.4,31
		z M45.8,11.3c1.7-1.3,3.5-2.5,5.4-3.6l0,0C49,8,43.3,8.1,39.9,8.1c0-0.8,0-2.6-0.1-3.4c3.3,0.1,10.6-0.1,13.9-0.3
		c2.2-0.1,4.4-0.4,6.5-0.8l0.3,3.7c-4.4,0.5-9.6,3.9-11.8,5.7L45.8,11.3z M62.1,16.7c-1.3-1.8-2.8-3.3-4.6-4.6l1.6-1.4
		c1.7,1.3,3.3,2.9,4.7,4.6L62.1,16.7z M65.9,13.3c-1.3-1.7-2.9-3.3-4.6-4.6l1.6-1.4c1.7,1.3,3.3,2.9,4.6,4.6L65.9,13.3z"/>
	<path id="パス_173295" class="st0" d="M74.8,13c5.4-1.5,12.1-3,14.9-3c5.1,0,8.8,2.8,8.7,8.7C98.3,25.4,93.3,30,83.3,33
		c-0.7-1.1-1.4-2.2-2.3-3.1c9.2-2.2,13.6-6.4,13.6-11c0-3.2-1.5-5.4-5-5.4c-3,0-8.1,1.2-12.6,2.9c0,0.3-0.4,0.7-0.8,0.9L74.8,13z
		 M80.1,1.4c4.8,0.3,9.5,1.2,14.1,2.5l-0.9,3.4C88.8,6,84.1,5.1,79.3,4.7L80.1,1.4z"/>
</g>
</svg>
